PathFileType	4	(X/Y/Z)	57_2_85_p0_0-1038_filt_butterworth.trc
DataRate	CameraRate	NumFrames	NumMarkers	Units	OrigDataRate	OrigDataStartFrame	OrigNumFrames
51.0	51.0	4	27	m	51.0	0	1038
Frame#	Time	RHip			RKnee			RAnkle			RBigToe			RSmallToe			RHeel			LHip			LKnee			LAnkle			LBigToe			LSmallToe			LHeel			Neck			Head			Nose			RShoulder			RElbow			RWrist			RThumb			RIndex			RPinky			LShoulder			LElbow			LWrist			LThumb			LIndex			LPinky			
		X1	Y1	Z1	X2	Y2	Z2	X3	Y3	Z3	X4	Y4	Z4	X5	Y5	Z5	X6	Y6	Z6	X7	Y7	Z7	X8	Y8	Z8	X9	Y9	Z9	X10	Y10	Z10	X11	Y11	Z11	X12	Y12	Z12	X13	Y13	Z13	X14	Y14	Z14	X15	Y15	Z15	X16	Y16	Z16	X17	Y17	Z17	X18	Y18	Z18	X19	Y19	Z19	X20	Y20	Z20	X21	Y21	Z21	X22	Y22	Z22	X23	Y23	Z23	X24	Y24	Z24	X25	Y25	Z25	X26	Y26	Z26	X27	Y27	Z27	
0	0.0	0.24637604737444	0.6545667204906376	0.8735820040040969	0.2801550675989987	0.19849700845206458	0.8588551420670261	0.2861238644222963	-0.22351828489459358	0.8598240416114046	0.2466444668356935	-0.22275767077192488	0.6932335375177142	0.30779715725249374	-0.20721648872218332	0.7000702612733124	0.25371726884334356	-0.307142602424234	0.9447316297260249	0.03818344211231045	0.6284317476480089	0.8715529839988772	0.04797543765937384	0.1756866682413165	0.8534887928647591	0.0870986281435791	-0.2290083665422702	0.8499512429495759	0.09113803914071572	-0.20545359652426803	0.6708051091306516	0.03585013469140632	-0.23056992808905924	0.7128613468595082	0.10176090223321918	-0.28269147043214715	0.8887293789611876	0.10957380555412734	1.1990767194856014	0.8892861601371365	0.114360786600742	1.455024797477917	0.8083937476792573	0.10816933114903175	1.3253801411948578	0.7453387758641685	0.24661008098587206	1.1251560187742968	0.8629359450065738	0.2982870353330423	0.8633593392798012	0.8324163217587999	0.19720378137811356	0.6323641961555274	0.7652344755631879	0.14862914187011259	0.5471783327042418	0.7238111351655611	0.15596259790097813	0.5336853741627883	0.735199695862787	0.15912458348348169	0.5472275805879824	0.7092397695128845	-0.02406473451756285	1.1019049627834012	0.8821990429964	-0.04036821631920567	0.8480563799174079	0.8294736014562403	0.0847874295577414	0.6514730753673992	0.7396621272574904	0.1703044267040473	0.6053549834246827	0.7042467957551715	0.17114623954215338	0.5585794466316285	0.7023594843078983	0.12552863263493566	0.5381165965324037	0.7276958110105285	
1	0.0196078431372549	0.24691166286687039	0.652451069840509	0.8730445296683609	0.2804815773768212	0.19746115898624694	0.8593558935136569	0.28533976271958345	-0.22281706628955528	0.8596736153399195	0.24657731914875541	-0.22027364685172984	0.6943657279650158	0.30822702367108795	-0.20505120856803338	0.69658168377118	0.2540537723134249	-0.30867118050237785	0.9470532412647114	0.04032819740338224	0.6278676876652511	0.8675880365581352	0.04812921992989044	0.17499836082784093	0.8536688290881354	0.08634571043773762	-0.22882792691012693	0.8500998657618587	0.09116786880013888	-0.2051469866667125	0.6726704501576717	0.03531882235350356	-0.23271606527536073	0.7177431610474658	0.1016855458344684	-0.2833999523784663	0.8894213651316797	0.10975249435103454	1.199125208196791	0.8893387925317251	0.11399901717355666	1.4551456772046067	0.8069146679423341	0.10850024426286493	1.323749307282514	0.7456645528367116	0.24607240966777008	1.1276065888707254	0.8616992753498738	0.29863961031756486	0.8634051440024301	0.8324006123003264	0.1969362191115342	0.6326394766114398	0.7651589092986393	0.14710986432186907	0.5476276585955673	0.7209219622110774	0.15250339232128632	0.535936743786403	0.7292935405467604	0.16120124044551493	0.5467470050949041	0.709544951279511	-0.024025534057234305	1.1019739638331438	0.8820906944026949	-0.03827184263202037	0.8498981346816831	0.824628408140334	0.08475167653164677	0.6514935655228276	0.7395602996385935	0.17001630159152528	0.6032091298601469	0.7042420419069662	0.1701533884322123	0.5575760019024317	0.7044062882882587	0.1251466448241099	0.5373894031259001	0.7285831822702155	
2	0.0392156862745098	0.2473293760095978	0.6510398632643177	0.8725590323485766	0.2807352598535876	0.19668030024251093	0.8597581461851571	0.28476402518983424	-0.22229349439248777	0.8595532911433973	0.24620861738195146	-0.21798816157259276	0.694591244371576	0.3088302290136931	-0.20273061027590453	0.6932077711109015	0.2543632191110689	-0.309826650776619	0.948817690153404	0.042024924309973614	0.6275559906455273	0.8644429728809679	0.048249475211100366	0.17454264217614313	0.8537907935658668	0.08580392985974103	-0.22868881781724837	0.8502576559872786	0.09145989577550087	-0.20556452384884624	0.6750803410529431	0.034594573132262545	-0.23430833759402933	0.7218627607192913	0.10160351700635963	-0.28407433512786	0.8900971143798646	0.10980434932925984	1.199153181772853	0.8893440871637275	0.11389186797942946	1.4551804684197884	0.8064291485122215	0.10861382560346902	1.3226163809763776	0.7458722484506425	0.24576851432743133	1.1290123029440573	0.8610072218450066	0.29872300561415055	0.8634055957559655	0.8324040033655431	0.19634145037728523	0.633383996785329	0.7634496396146084	0.14629512137203174	0.5486216556693629	0.7177870591333458	0.15016463723301063	0.5375088401982161	0.7251715665405901	0.16268783329261322	0.5463447071340743	0.7098736748911192	-0.023998363329528975	1.1020172123578689	0.8820398746289417	-0.03693625188147569	0.8508615298727921	0.8215550240721046	0.0847214062523235	0.6515136631564387	0.739495155325226	0.1698018504696234	0.601726816994689	0.7042314489139161	0.1697558382218357	0.5573124149535477	0.7049263305026919	0.1249558877833097	0.5371342326747285	0.7290643154828718	
3	0.0588235294117647	0.24763938240741018	0.6502644661379345	0.8721235800173925	0.28092252454971567	0.19612931670948897	0.8600698474467965	0.28437761129737193	-0.2219310456784871	0.8594609937938607	0.24564693261052917	-0.21596221279521943	0.6941726777928152	0.30950942301828294	-0.20046126696342992	0.6902141055552998	0.25464430850084363	-0.31063900612135564	0.9500694994609156	0.04331193019970354	0.6274733633701617	0.8620463674397544	0.04833846285377713	0.17429803416869893	0.85386010454224	0.08545317731269701	-0.22858736795062096	0.8504224064425202	0.09193272130146798	-0.20649713925879518	0.6777925256632801	0.03378367030044029	-0.23538812514253984	0.725140968515823	0.10151594604591307	-0.28471368152447213	0.8907535440322817	0.1097703338154086	1.1991654146485573	0.8893158667172152	0.11397753995205445	1.4551507742162708	0.8066886176422328	0.10860198538889317	1.3218988299873398	0.745992368206178	0.2456873607863089	1.1295422846643375	0.8608685442535087	0.2986482919054552	0.8633760256994509	0.8324292310959875	0.19556641491386725	0.6344186352840984	0.7606984033097881	0.1460387029939144	0.5499749668826956	0.7146109619395558	0.1487904080291427	0.5385778784813001	0.722406694744558	0.1636739810700415	0.5460234238063346	0.7101922301726957	-0.0239809375999083	1.1020394338700215	0.8820335534111842	-0.036212753594894016	0.851122725270302	0.8199041403759565	0.08469654557920567	0.6515323023587546	0.7394600230096725	0.1696584303673703	0.6008301301320379	0.7042252296444401	0.16981185079905417	0.5575987774978919	0.7043135268141238	0.12495700518273006	0.5372945330193986	0.729102600145503	
